<svg xmlns="http://www.w3.org/2000/svg" xmlns:xlink="http://www.w3.org/1999/xlink" version="1.1" class="marks" width="463" height="344" viewBox="0 0 463 344"><rect width="463" height="344" fill="white"/><g fill="none" stroke-miterlimit="10" transform="translate(8,6)"><g class="mark-group role-frame root" role="graphics-object" aria-roledescription="group mark container"><g transform="translate(0,0)"><path class="background" aria-hidden="true" d="M0,0h300v0h-300Z"/><g><g class="mark-group role-scope concat_0_group" role="graphics-object" aria-roledescription="group mark container"><g transform="translate(0,0)"><path class="background" aria-hidden="true" d="M0.5,0.5h300v300h-300Z" stroke="#ddd"/><g><g class="mark-group role-axis" aria-hidden="true"><g transform="translate(0.5,300.5)"><path class="background" aria-hidden="true" d="M0,0h0v0h0Z" pointer-events="none"/><g><g class="mark-rule role-axis-grid" pointer-events="none"><line transform="translate(14,-300)" x2="0" y2="300" stroke="#ddd" stroke-width="1" opacity="1"/><line transform="translate(45,-300)" x2="0" y2="300" stroke="#ddd" stroke-width="1" opacity="1"/><line transform="translate(76,-300)" x2="0" y2="300" stroke="#ddd" stroke-width="1" opacity="1"/><line transform="translate(106,-300)" x2="0" y2="300" stroke="#ddd" stroke-width="1" opacity="1"/><line transform="translate(137,-300)" x2="0" y2="300" stroke="#ddd" stroke-width="1" opacity="1"/><line transform="translate(167,-300)" x2="0" y2="300" stroke="#ddd" stroke-width="1" opacity="1"/><line transform="translate(198,-300)" x2="0" y2="300" stroke="#ddd" stroke-width="1" opacity="1"/><line transform="translate(228,-300)" x2="0" y2="300" stroke="#ddd" stroke-width="1" opacity="1"/><line transform="translate(259,-300)" x2="0" y2="300" stroke="#ddd" stroke-width="1" opacity="1"/><line transform="translate(290,-300)" x2="0" y2="300" stroke="#ddd" stroke-width="1" opacity="1"/></g></g><path class="foreground" aria-hidden="true" d="" pointer-events="none" display="none"/></g></g><g class="mark-group role-axis" aria-hidden="true"><g transform="translate(0.5,0.5)"><path class="background" aria-hidden="true" d="M0,0h0v0h0Z" pointer-events="none"/><g><g class="mark-rule role-axis-grid" pointer-events="none"><line transform="translate(0,300)" x2="300" y2="0" stroke="#ddd" stroke-width="1" opacity="1"/><line transform="translate(0,270)" x2="300" y2="0" stroke="#ddd" stroke-width="1" opacity="1"/><line transform="translate(0,240)" x2="300" y2="0" stroke="#ddd" stroke-width="1" opacity="1"/><line transform="translate(0,210)" x2="300" y2="0" stroke="#ddd" stroke-width="1" opacity="1"/><line transform="translate(0,180)" x2="300" y2="0" stroke="#ddd" stroke-width="1" opacity="1"/><line transform="translate(0,150)" x2="300" y2="0" stroke="#ddd" stroke-width="1" opacity="1"/><line transform="translate(0,120)" x2="300" y2="0" stroke="#ddd" stroke-width="1" opacity="1"/><line transform="translate(0,90)" x2="300" y2="0" stroke="#ddd" stroke-width="1" opacity="1"/><line transform="translate(0,60)" x2="300" y2="0" stroke="#ddd" stroke-width="1" opacity="1"/><line transform="translate(0,30)" x2="300" y2="0" stroke="#ddd" stroke-width="1" opacity="1"/><line transform="translate(0,0)" x2="300" y2="0" stroke="#ddd" stroke-width="1" opacity="1"/></g></g><path class="foreground" aria-hidden="true" d="" pointer-events="none" display="none"/></g></g><g class="mark-group role-axis" role="graphics-symbol" aria-roledescription="axis" aria-label="X-axis titled 'Latency (ms)' for a linear scale with values from 18 to 67"><g transform="translate(0.5,300.5)"><path class="background" aria-hidden="true" d="M0,0h0v0h0Z" pointer-events="none"/><g><g class="mark-rule role-axis-tick" pointer-events="none"><line transform="translate(14,0)" x2="0" y2="5" stroke="#888" stroke-width="1" opacity="1"/><line transform="translate(45,0)" x2="0" y2="5" stroke="#888" stroke-width="1" opacity="1"/><line transform="translate(76,0)" x2="0" y2="5" stroke="#888" stroke-width="1" opacity="1"/><line transform="translate(106,0)" x2="0" y2="5" stroke="#888" stroke-width="1" opacity="1"/><line transform="translate(137,0)" x2="0" y2="5" stroke="#888" stroke-width="1" opacity="1"/><line transform="translate(167,0)" x2="0" y2="5" stroke="#888" stroke-width="1" opacity="1"/><line transform="translate(198,0)" x2="0" y2="5" stroke="#888" stroke-width="1" opacity="1"/><line transform="translate(228,0)" x2="0" y2="5" stroke="#888" stroke-width="1" opacity="1"/><line transform="translate(259,0)" x2="0" y2="5" stroke="#888" stroke-width="1" opacity="1"/><line transform="translate(290,0)" x2="0" y2="5" stroke="#888" stroke-width="1" opacity="1"/></g><g class="mark-text role-axis-label" pointer-events="none"><text text-anchor="middle" transform="translate(14.473197298746568,15)" font-family="sans-serif" font-size="10px" fill="#000" opacity="1">20</text><text text-anchor="middle" transform="translate(45.04344686911836,15)" font-family="sans-serif" font-size="10px" fill="#000" opacity="1">25</text><text text-anchor="middle" transform="translate(75.61369643949017,15)" font-family="sans-serif" font-size="10px" fill="#000" opacity="1">30</text><text text-anchor="middle" transform="translate(106.18394600986196,15)" font-family="sans-serif" font-size="10px" fill="#000" opacity="1">35</text><text text-anchor="middle" transform="translate(136.75419558023378,15)" font-family="sans-serif" font-size="10px" fill="#000" opacity="1">40</text><text text-anchor="middle" transform="translate(167.32444515060556,15)" font-family="sans-serif" font-size="10px" fill="#000" opacity="1">45</text><text text-anchor="middle" transform="translate(197.89469472097738,15)" font-family="sans-serif" font-size="10px" fill="#000" opacity="1">50</text><text text-anchor="middle" transform="translate(228.46494429134918,15)" font-family="sans-serif" font-size="10px" fill="#000" opacity="1">55</text><text text-anchor="middle" transform="translate(259.035193861721,15)" font-family="sans-serif" font-size="10px" fill="#000" opacity="1">60</text><text text-anchor="middle" transform="translate(289.6054434320928,15)" font-family="sans-serif" font-size="10px" fill="#000" opacity="1">65</text></g><g class="mark-text role-axis-title" pointer-events="none"><text text-anchor="middle" transform="translate(150,30)" font-family="sans-serif" font-size="11px" font-weight="bold" fill="#000" opacity="1">Latency (ms)</text></g></g><path class="foreground" aria-hidden="true" d="" pointer-events="none" display="none"/></g></g><g class="mark-group role-axis"><g transform="translate(0.5,0.5)"><path class="background" aria-hidden="true" d="M0,0h0v0h0Z" pointer-events="none"/><g/><path class="foreground" aria-hidden="true" d="" pointer-events="none" display="none"/></g></g><g class="mark-group role-scope concat_0_pathgroup" role="graphics-object" aria-roledescription="group mark container"><g transform="translate(0,0)"><path class="background" aria-hidden="true" d="M0,0h300v300h-300Z"/><g><g class="mark-line role-mark concat_0_marks" role="graphics-object" aria-roledescription="line mark container"><path aria-label="Latency (ms): 17.632797; density: 0; Experiment: signal+query p90 = 49ms" role="graphics-symbol" aria-roledescription="line mark" d="M0,300L1.5,300L3,300L4.5,300L6,300L7.5,300L9,300L10.5,300L12,300L13.5,300L15,300L16.5,300L18,300L19.5,300L21,300L22.5,300L24,300L25.5,300L27,300L28.5,300L29.999,300L31.499,300L32.999,300L34.499,300L35.999,300L37.499,300L38.999,300L40.499,300L41.999,300L43.499,300L44.999,300L46.499,300L47.999,300L49.499,300L50.999,300L52.499,300L53.999,300L55.499,300L56.999,300L58.499,300L59.999,300L61.499,300L62.999,300L64.499,300L65.999,300L67.499,300L68.999,300L70.499,300L71.999,300L73.499,300L74.999,300L76.499,300L77.999,300L79.499,300L80.999,300L82.499,300L83.999,300L85.499,300L86.998,300L88.498,300L89.998,300L91.498,300L92.998,300L94.498,300L95.998,300L97.498,300L98.998,300L100.498,300L101.998,300L103.498,299.998L104.998,299.99L106.498,299.962L107.998,299.897L109.498,299.787L110.998,299.655L112.498,299.517L113.998,299.319L115.498,298.942L116.998,298.31L118.498,297.464L119.998,296.449L121.498,295.124L122.998,293.2L124.498,290.567L125.998,287.383L127.498,283.671L128.998,278.893L130.498,272.085L131.998,262.554L133.498,250.523L134.998,236.879L136.498,222.219L137.998,206.493L139.498,189.564L140.998,171.612L142.498,152.872L143.998,133.423L145.497,113.565L146.997,94.082L148.497,75.81L149.997,59.236L151.497,44.889L152.997,33.96L154.497,28.003L155.997,28.148L157.497,34.954L158.997,48.398L160.497,67.358L161.997,89.625L163.497,112.909L164.997,135.49L166.497,155.911L167.997,172.971L169.497,186.477L170.997,197.542L172.497,207.636L173.997,217.216L175.497,225.516L176.997,231.706L178.497,235.962L179.997,239.388L181.497,243.037L182.997,247.043L184.497,250.791L185.997,253.81L187.497,256.181L188.997,258.208L190.497,260.21L191.997,262.541L193.497,265.355L194.997,268.268L196.497,270.549L197.997,271.816L199.497,272.48L200.997,273.33L202.497,274.772L203.996,276.715L205.496,278.925L206.996,281.104L208.496,282.839L209.996,283.874L211.496,284.411L212.996,284.904L214.496,285.594L215.996,286.357L217.496,287.014L218.996,287.578L220.496,288.17L221.996,288.935L223.496,290.008L224.996,291.292L226.496,292.366L227.996,292.861L229.496,292.9L230.996,292.922L232.496,293.174L233.996,293.585L235.496,293.999L236.996,294.271L238.496,294.283L239.996,294.084L241.496,293.909L242.996,293.964L244.496,294.251L245.996,294.626L247.496,294.951L248.996,295.214L250.496,295.51L251.996,295.889L253.496,296.252L254.996,296.454L256.496,296.511L257.996,296.635L259.496,296.993L260.995,297.508L262.495,297.958L263.995,298.219L265.495,298.327L266.995,298.33L268.495,298.191L269.995,297.896L271.495,297.572L272.995,297.382L274.495,297.371L275.995,297.455L277.495,297.549L278.995,297.613L280.495,297.605L281.995,297.516L283.495,297.472L284.995,297.633L286.495,297.986L287.995,298.357L289.495,298.619L290.995,298.809L292.495,299.013L293.995,299.222L295.495,299.366L296.995,299.434L298.495,299.491L299.995,299.595" stroke="#4c78a8" stroke-width="2"/></g></g><path class="foreground" aria-hidden="true" d="" display="none"/></g><g transform="translate(0,0)"><path class="background" aria-hidden="true" d="M0,0h300v300h-300Z"/><g><g class="mark-line role-mark concat_0_marks" role="graphics-object" aria-roledescription="line mark container"><path aria-label="Latency (ms): 17.632797; density: 0.000302919689807; Experiment: update p90 = 30ms" role="graphics-symbol" aria-roledescription="line mark" d="M0,299.546L1.5,299.397L3,299.203L4.5,298.863L6,298.298L7.5,297.438L9,296.105L10.5,293.993L12,290.833L13.5,286.601L15,281.495L16.5,275.635L18,268.894L19.5,261.049L21,251.971L22.5,241.596L24,229.869L25.5,216.891L27,202.956L28.5,188.24L29.999,172.737L31.499,156.567L32.999,139.922L34.499,123.012L35.999,106.596L37.499,92.149L38.999,81.012L40.499,73.62L41.999,69.585L43.499,68.088L44.999,68.197L46.499,69.238L47.999,71.28L49.499,75.335L50.999,82.637L52.499,93.23L53.999,105.627L55.499,118.349L56.999,131.332L58.499,145.28L59.999,160.19L61.499,175.079L62.999,188.786L64.499,200.62L65.999,210.595L67.499,219.32L68.999,227.338L70.499,234.557L71.999,240.629L73.499,245.681L74.999,250.227L76.499,254.524L77.999,258.421L79.499,261.885L80.999,265.305L82.499,268.945L83.999,272.445L85.499,275.324L86.998,277.59L88.498,279.403L89.998,280.602L91.498,281.125L92.998,281.543L94.498,282.614L95.998,284.391L97.498,286.158L98.998,287.259L100.498,287.736L101.998,288.156L103.498,289.007L104.998,290.339L106.498,291.87L107.998,293.269L109.498,294.321L110.998,294.967L112.498,295.295L113.998,295.467L115.498,295.563L116.998,295.558L118.498,295.433L119.998,295.264L121.498,295.188L122.998,295.276L124.498,295.477L125.998,295.731L127.498,296.073L128.998,296.554L130.498,297.119L131.998,297.633L133.498,297.98L134.998,298.122L136.498,298.106L137.998,298.025L139.498,297.974L140.998,298.009L142.498,298.148L143.998,298.411L145.497,298.798L146.997,299.223L148.497,299.55L149.997,299.708L151.497,299.724L152.997,299.663L154.497,299.569L155.997,299.463L157.497,299.366L158.997,299.3L160.497,299.28L161.997,299.287L163.497,299.276L164.997,299.22L166.497,299.136L167.997,299.089L169.497,299.145L170.997,299.294L172.497,299.44L173.997,299.483L175.497,299.399L176.997,299.262L178.497,299.204L179.997,299.298L181.497,299.482L182.997,299.613L184.497,299.614L185.997,299.522L187.497,299.425L188.997,299.374L190.497,299.355L191.997,299.338L193.497,299.317L194.997,299.297L196.497,299.298L197.997,299.348L199.497,299.446L200.997,299.551L202.497,299.617L203.996,299.623L205.496,299.568L206.996,299.467L208.496,299.352L209.996,299.266L211.496,299.251L212.996,299.317L214.496,299.422L215.996,299.514L217.496,299.571L218.996,299.596L220.496,299.588L221.996,299.544L223.496,299.49L224.996,299.471L226.496,299.507L227.996,299.587L229.496,299.695L230.996,299.805L232.496,299.88L233.996,299.888L235.496,299.832L236.996,299.759L238.496,299.732L239.996,299.775L241.496,299.849L242.996,299.895L244.496,299.882L245.996,299.83L247.496,299.779L248.996,299.766L250.496,299.798L251.996,299.855L253.496,299.898L254.996,299.902L256.496,299.876L257.996,299.852L259.496,299.849L260.995,299.853L262.495,299.849L263.995,299.847L265.495,299.859L266.995,299.866L268.495,299.833L269.995,299.765L271.495,299.712L272.995,299.715L274.495,299.757L275.995,299.799L277.495,299.835L278.995,299.878L280.495,299.919L281.995,299.928L283.495,299.884L284.995,299.782L286.495,299.638L287.995,299.49L289.495,299.4L290.995,299.411L292.495,299.512L293.995,299.65L295.495,299.784L296.995,299.888L298.495,299.954L299.995,299.985" stroke="#f58518" stroke-width="2"/></g></g><path class="foreground" aria-hidden="true" d="" display="none"/></g></g><g class="mark-group role-legend" role="graphics-symbol" aria-roledescription="legend" aria-label="Symbol legend for stroke color with 2 values: signal+query p90 = 49ms, update p90 = 30ms"><g transform="translate(320,0)"><path class="background" aria-hidden="true" d="M0,0h129v24h-129Z" pointer-events="none"/><g><g class="mark-group role-legend-entry"><g transform="translate(0,0)"><path class="background" aria-hidden="true" d="M0,0h0v0h0Z" pointer-events="none"/><g><g class="mark-group role-scope" role="graphics-object" aria-roledescription="group mark container"><g transform="translate(0,0)"><path class="background" aria-hidden="true" d="M0,0h128.294921875v11h-128.294921875Z" pointer-events="none" opacity="1"/><g><g class="mark-symbol role-legend-symbol" pointer-events="none"><path transform="translate(6,6)" d="M-5,0L5,0" stroke="#4c78a8" stroke-width="1.5" opacity="1"/></g><g class="mark-text role-legend-label" pointer-events="none"><text text-anchor="start" transform="translate(16,9)" font-family="sans-serif" font-size="10px" fill="#000" opacity="1">signal+query p90 = 49ms</text></g></g><path class="foreground" aria-hidden="true" d="" pointer-events="none" display="none"/></g><g transform="translate(0,13)"><path class="background" aria-hidden="true" d="M0,0h128.294921875v11h-128.294921875Z" pointer-events="none" opacity="1"/><g><g class="mark-symbol role-legend-symbol" pointer-events="none"><path transform="translate(6,6)" d="M-5,0L5,0" stroke="#f58518" stroke-width="1.5" opacity="1"/></g><g class="mark-text role-legend-label" pointer-events="none"><text text-anchor="start" transform="translate(16,9)" font-family="sans-serif" font-size="10px" fill="#000" opacity="1">update p90 = 30ms</text></g></g><path class="foreground" aria-hidden="true" d="" pointer-events="none" display="none"/></g></g></g><path class="foreground" aria-hidden="true" d="" pointer-events="none" display="none"/></g></g></g><path class="foreground" aria-hidden="true" d="" pointer-events="none" display="none"/></g></g></g><path class="foreground" aria-hidden="true" d="" display="none"/></g></g></g><path class="foreground" aria-hidden="true" d="" display="none"/></g></g></g></svg>